<svg width="60" height="60" viewBox="0 0 60 60" fill="none" xmlns="http://www.w3.org/2000/svg">
<path fill-rule="evenodd" clip-rule="evenodd" d="M30 33.75C32.6522 33.75 35.1957 32.6964 37.0711 30.8211C38.9464 28.9457 40 26.4022 40 23.75C40 21.0978 38.9464 18.5543 37.0711 16.6789C35.1957 14.8036 32.6522 13.75 30 13.75C27.3478 13.75 24.8043 14.8036 22.9289 16.6789C21.0536 18.5543 20 21.0978 20 23.75C20 26.4022 21.0536 28.9457 22.9289 30.8211C24.8043 32.6964 27.3478 33.75 30 33.75ZM30 31.25C30.9849 31.25 31.9602 31.056 32.8701 30.6791C33.7801 30.3022 34.6069 29.7497 35.3033 29.0533C35.9997 28.3569 36.5522 27.5301 36.9291 26.6201C37.306 25.7102 37.5 24.7349 37.5 23.75C37.5 22.7651 37.306 21.7898 36.9291 20.8799C36.5522 19.9699 35.9997 19.1431 35.3033 18.4467C34.6069 17.7503 33.7801 17.1978 32.8701 16.8209C31.9602 16.444 30.9849 16.25 30 16.25C28.0109 16.25 26.1032 17.0402 24.6967 18.4467C23.2902 19.8532 22.5 21.7609 22.5 23.75C22.5 25.7391 23.2902 27.6468 24.6967 29.0533C26.1032 30.4598 28.0109 31.25 30 31.25Z" fill="#50D6B0" fill-opacity="0.8"/>
<path fill-rule="evenodd" clip-rule="evenodd" d="M55 30C55 43.8075 43.8075 55 30 55C16.1925 55 5 43.8075 5 30C5 16.1925 16.1925 5 30 5C43.8075 5 55 16.1925 55 30ZM42.0375 49.0125C38.4391 51.2979 34.2628 52.5079 30 52.5C25.6354 52.5079 21.3638 51.2392 17.7112 48.85C17.4112 48.475 17.1071 48.0875 16.7988 47.6875C16.4411 47.219 16.2482 46.6456 16.25 46.0563C16.25 44.71 17.2175 43.5813 18.5113 43.3925C27.0675 42.1425 32.9588 42.25 41.5263 43.4363C42.1464 43.5269 42.7129 43.8386 43.1215 44.3138C43.5301 44.789 43.7533 45.3958 43.75 46.0225C43.75 46.6225 43.5437 47.205 43.1712 47.66C42.7871 48.1275 42.4092 48.5783 42.0375 49.0125ZM46.2313 45.5825C46.0313 43.2425 44.255 41.29 41.8687 40.96C33.0987 39.7463 26.9688 39.63 18.15 40.9188C15.75 41.2688 13.9813 43.2387 13.7713 45.585C9.74041 41.3988 7.49206 35.8113 7.5 30C7.5 17.5738 17.5738 7.5 30 7.5C42.4262 7.5 52.5 17.5738 52.5 30C52.508 35.8101 50.2606 41.3966 46.2313 45.5825Z" fill="#50D6B0" fill-opacity="0.8"/>
</svg>
