<svg  viewBox="0 0 24 24" fill="none" xmlns="http://www.w3.org/2000/svg">
<path d="M19.773 14.6102C19.1948 13.691 18.3353 11.0899 18.3353 7.69264C18.3353 5.65242 17.4572 3.69577 15.8941 2.25312C14.331 0.810472 12.211 0 10.0005 0C7.79 0 5.67002 0.810472 4.10695 2.25312C2.54387 3.69577 1.66575 5.65242 1.66575 7.69264C1.66575 11.0909 0.805182 13.691 0.226957 14.6102C0.0792965 14.844 0.00101611 15.1095 9.82562e-06 15.38C-0.000996456 15.6505 0.0753071 15.9165 0.221225 16.1512C0.367144 16.3858 0.577517 16.5808 0.831129 16.7164C1.08474 16.8521 1.37263 16.9236 1.66575 16.9238H5.91752C6.10982 17.7923 6.62121 18.5728 7.3652 19.1333C8.1092 19.6938 9.04012 20 10.0005 20C10.9609 20 11.8918 19.6938 12.6358 19.1333C13.3798 18.5728 13.8912 17.7923 14.0835 16.9238H18.3353C18.6283 16.9234 18.9161 16.8518 19.1695 16.7161C19.423 16.5804 19.6332 16.3854 19.779 16.1508C19.9248 15.9161 20.001 15.6502 20 15.3798C19.9989 15.1093 19.9207 14.8439 19.773 14.6102ZM10.0005 18.4623C9.48358 18.4622 8.97939 18.3142 8.55735 18.0386C8.13532 17.7631 7.81618 17.3736 7.64386 16.9238H12.3572C12.1849 17.3736 11.8657 17.7631 11.4437 18.0386C11.0217 18.3142 10.5175 18.4622 10.0005 18.4623ZM1.66575 15.3853C2.46797 14.1121 3.3327 11.162 3.3327 7.69264C3.3327 6.06047 4.0352 4.49515 5.28566 3.34103C6.53612 2.18691 8.2321 1.53853 10.0005 1.53853C11.7689 1.53853 13.4649 2.18691 14.7154 3.34103C15.9658 4.49515 16.6683 6.06047 16.6683 7.69264C16.6683 11.1591 17.531 14.1093 18.3353 15.3853H1.66575Z" fill="black"/>
</svg>
