<svg viewBox="0 0 25 25" xmlns="http://www.w3.org/2000/svg">
<path d="M13.7808 1.23914C13.195 0.653358 12.2452 0.653358 11.6594 1.23914L1.15943 11.7391C0.573646 12.3249 0.573646 13.2747 1.15943 13.8605C1.74522 14.4463 2.69497 14.4463 3.28075 13.8605L3.72009 13.4211V23.2998C3.72009 24.1282 4.39167 24.7998 5.22009 24.7998H8.22009C9.04852 24.7998 9.72009 24.1282 9.72009 23.2998V20.2998C9.72009 19.4714 10.3917 18.7998 11.2201 18.7998H14.2201C15.0485 18.7998 15.7201 19.4714 15.7201 20.2998V23.2998C15.7201 24.1282 16.3917 24.7998 17.2201 24.7998H20.2201C21.0485 24.7998 21.7201 24.1282 21.7201 23.2998V13.4211L22.1594 13.8605C22.7452 14.4463 23.695 14.4463 24.2808 13.8605C24.8665 13.2747 24.8665 12.3249 24.2808 11.7391L13.7808 1.23914Z" fill="#3D453A"/>
</svg>
