<svg width="16" height="17" viewBox="0 0 16 17" fill="none" xmlns="http://www.w3.org/2000/svg">
<path d="M7.19217 14.9941L7.19147 14.9934C5.12234 12.9484 3.44293 11.2854 2.27501 9.72808C1.11355 8.17935 0.5 6.78841 0.5 5.29564C0.5 2.83672 2.25123 1 4.4 1C5.62414 1 6.82055 1.62402 7.60717 2.62296L8 3.12181L8.39283 2.62296C9.17945 1.62402 10.3759 1 11.6 1C13.7488 1 15.5 2.83672 15.5 5.29564C15.5 6.78841 14.8864 8.17935 13.725 9.72808C12.5571 11.2854 10.8777 12.9484 8.80853 14.9934L8.80783 14.9941L8 15.7956L7.19217 14.9941Z" stroke="black"/>
</svg>
