<svg width="16" height="17" viewBox="0 0 16 17" fill="none" xmlns="http://www.w3.org/2000/svg">
<path d="M8 8.83333C7.38116 8.83333 6.78767 9.07917 6.35008 9.51675C5.9125 9.95434 5.66666 10.5478 5.66666 11.1667C5.66666 11.7855 5.9125 12.379 6.35008 12.8166C6.78767 13.2542 7.38116 13.5 8 13.5C8.61884 13.5 9.21233 13.2542 9.64991 12.8166C10.0875 12.379 10.3333 11.7855 10.3333 11.1667C10.3333 10.5478 10.0875 9.95434 9.64991 9.51675C9.21233 9.07917 8.61884 8.83333 8 8.83333ZM7 11.1667C7 10.9014 7.10535 10.6471 7.29289 10.4596C7.48043 10.272 7.73478 10.1667 8 10.1667C8.26521 10.1667 8.51957 10.272 8.7071 10.4596C8.89464 10.6471 9 10.9014 9 11.1667C9 11.4319 8.89464 11.6862 8.7071 11.8738C8.51957 12.0613 8.26521 12.1667 8 12.1667C7.73478 12.1667 7.48043 12.0613 7.29289 11.8738C7.10535 11.6862 7 11.4319 7 11.1667Z" fill="black"/>
<path d="M11.684 3.91067L9.56467 0.939333L1.772 7.16467L1.34 7.16V7.16667H1V15.1667H15V7.16667H14.3587L13.0827 3.434L11.684 3.91067ZM12.95 7.16667H6.26467L11.244 5.46933L12.2587 5.14467L12.95 7.16667ZM10.3667 4.36L5.22667 6.112L9.29733 2.86L10.3667 4.36ZM2.33333 12.6127V9.71933C2.6146 9.61966 2.87007 9.45848 3.08113 9.24754C3.29219 9.0366 3.45351 8.78121 3.55333 8.5H12.4467C12.5464 8.78131 12.7077 9.03681 12.9188 9.24786C13.1299 9.45892 13.3854 9.62022 13.6667 9.72V12.6133C13.3854 12.7131 13.1299 12.8744 12.9188 13.0855C12.7077 13.2965 12.5464 13.552 12.4467 13.8333H3.55467C3.45479 13.5518 3.29331 13.2961 3.08201 13.0849C2.87072 12.8737 2.61493 12.7124 2.33333 12.6127Z" fill="black"/>
</svg>
