<svg  viewBox="0 0 24 24" fill="none" xmlns="http://www.w3.org/2000/svg">
<path fill-rule="evenodd" clip-rule="evenodd" d="M24 12C24 18.6274 18.6274 24 12 24C5.37258 24 0 18.6274 0 12C0 5.37258 5.37258 0 12 0C18.6274 0 24 5.37258 24 12ZM15 7.5C15 9.15685 13.6569 10.5 12 10.5C10.3431 10.5 9 9.15685 9 7.5C9 5.84315 10.3431 4.5 12 4.5C13.6569 4.5 15 5.84315 15 7.5ZM11.9999 13.5C8.97359 13.5 6.36592 15.2924 5.1806 17.8736C6.83104 19.7881 9.27398 21 12 21C14.7259 21 17.1688 19.7881 18.8192 17.8737C17.634 15.2925 15.0263 13.5 11.9999 13.5Z" fill="#50D6B0" fill-opacity="0.8"/>
</svg>
